<svg xmlns="http://www.w3.org/2000/svg" xmlns:xlink="http://www.w3.org/1999/xlink" width="6912" zoomAndPan="magnify" viewBox="0 0 5184 2592.000001" height="3456" preserveAspectRatio="xMidYMid meet" version="1.0"><defs><g/><clipPath id="4baf63b421"><rect x="0" width="4823" y="0" height="1018"/></clipPath></defs><g transform="matrix(1, 0, 0, 1, 205, 784)"><g clip-path="url(#4baf63b421)"><g fill="#343430" fill-opacity="1"><g transform="translate(3.923579, 677.059273)"><g><path d="M 1179.671875 -463.421875 C 1180.796875 -460.035156 1177.550781 -457.210938 1169.9375 -454.953125 C 1162.332031 -452.703125 1153.175781 -451.578125 1142.46875 -451.578125 C 1128.375 -451.578125 1109.0625 -453.269531 1084.53125 -456.65625 C 1060.007812 -460.039062 1034.21875 -464.269531 1007.15625 -469.34375 C 980.09375 -474.414062 955.003906 -479.207031 931.890625 -483.71875 C 901.453125 -456.65625 870.164062 -426.914062 838.03125 -394.5 C 805.894531 -362.082031 774.601562 -329.945312 744.15625 -298.09375 C 713.71875 -266.238281 685.8125 -236.78125 660.4375 -209.71875 C 608.007812 -154.46875 554.453125 -105.703125 499.765625 -63.421875 C 445.085938 -21.140625 389.703125 11.414062 333.609375 34.25 C 277.515625 57.082031 221 67.367188 164.0625 65.109375 C 144.320312 63.984375 125.289062 60.035156 106.96875 53.265625 C 88.644531 46.503906 73.5625 35.226562 61.71875 19.4375 C 49.882812 3.65625 43.96875 -18.046875 43.96875 -45.671875 C 43.96875 -67.648438 48.617188 -91.179688 57.921875 -116.265625 C 67.222656 -141.359375 80.894531 -166.3125 98.9375 -191.125 C 94.988281 -193.9375 88.503906 -202.25 79.484375 -216.0625 C 70.472656 -229.875 65.679688 -250.3125 65.109375 -277.375 C 64.546875 -307.25 72.296875 -338.394531 88.359375 -370.8125 C 104.429688 -403.238281 130.507812 -433.546875 166.59375 -461.734375 C 202.675781 -489.921875 250.3125 -512.890625 309.5 -530.640625 C 368.695312 -548.390625 441.140625 -557.265625 526.828125 -557.265625 C 566.296875 -557.265625 608.578125 -554.867188 653.671875 -550.078125 C 698.773438 -545.285156 744.722656 -538.941406 791.515625 -531.046875 C 838.304688 -523.160156 883.691406 -514.710938 927.671875 -505.703125 C 935.566406 -511.890625 947.265625 -519.492188 962.765625 -528.515625 C 978.265625 -537.535156 993.628906 -544.019531 1008.859375 -547.96875 C 1014.492188 -549.65625 1019.140625 -550.78125 1022.796875 -551.34375 C 1026.460938 -551.914062 1028.296875 -550.789062 1028.296875 -547.96875 C 1028.296875 -546.28125 1026.882812 -545.007812 1024.0625 -544.15625 C 1021.25 -543.3125 1017.867188 -542.046875 1013.921875 -540.359375 C 1000.390625 -534.722656 987.703125 -528.382812 975.859375 -521.34375 C 964.023438 -514.300781 954.445312 -507.675781 947.125 -501.46875 C 963.46875 -497.519531 981.503906 -493.289062 1001.234375 -488.78125 C 1020.972656 -484.28125 1040.988281 -480.054688 1061.28125 -476.109375 C 1081.570312 -472.160156 1100.035156 -468.914062 1116.671875 -466.375 C 1133.304688 -463.84375 1146.695312 -462.578125 1156.84375 -462.578125 C 1164.738281 -462.578125 1170.375 -463 1173.75 -463.84375 C 1177.132812 -464.6875 1179.109375 -464.546875 1179.671875 -463.421875 Z M 907.375 -487.9375 C 880.3125 -492.445312 850.429688 -497.097656 817.734375 -501.890625 C 785.035156 -506.679688 751.207031 -511.046875 716.25 -514.984375 C 681.300781 -518.929688 647.476562 -522.03125 614.78125 -524.28125 C 582.082031 -526.539062 552.203125 -527.671875 525.140625 -527.671875 C 444.523438 -527.671875 375.75 -520.203125 318.8125 -505.265625 C 261.875 -490.335938 215.503906 -470.609375 179.703125 -446.078125 C 143.898438 -421.554688 117.820312 -394.632812 101.46875 -365.3125 C 85.125 -336 77.234375 -306.96875 77.796875 -278.21875 C 77.796875 -259.050781 80.472656 -242.5625 85.828125 -228.75 C 91.191406 -214.9375 97.253906 -204.648438 104.015625 -197.890625 C 118.671875 -216.492188 135.441406 -234.671875 154.328125 -252.421875 C 173.210938 -270.179688 193.929688 -286.957031 216.484375 -302.75 C 239.597656 -318.53125 266.09375 -333.1875 295.96875 -346.71875 C 325.851562 -360.25 356.722656 -371.242188 388.578125 -379.703125 C 420.429688 -388.160156 451.296875 -392.390625 481.171875 -392.390625 C 511.046875 -392.390625 536.128906 -386.609375 556.421875 -375.046875 C 576.722656 -363.492188 586.304688 -342.773438 585.171875 -312.890625 C 585.171875 -303.304688 583.203125 -298.515625 579.265625 -298.515625 C 577.003906 -298.515625 575.875 -299.921875 575.875 -302.734375 C 575.875 -305.554688 575.875 -309.789062 575.875 -315.4375 C 575.3125 -338.550781 566.710938 -355.179688 550.078125 -365.328125 C 533.453125 -375.472656 514.148438 -380.546875 492.171875 -380.546875 C 465.671875 -380.546875 436.914062 -375.046875 405.90625 -364.046875 C 374.90625 -353.054688 344.742188 -339.523438 315.421875 -323.453125 C 286.109375 -307.390625 260.175781 -291.1875 237.625 -274.84375 C 184.070312 -237.0625 140.660156 -198.015625 107.390625 -157.703125 C 74.128906 -117.398438 57.5 -78.363281 57.5 -40.59375 C 57.5 -16.351562 62.992188 2.25 73.984375 15.21875 C 84.984375 28.1875 98.9375 37.347656 115.84375 42.703125 C 132.757812 48.054688 149.957031 51.015625 167.4375 51.578125 C 201.832031 52.148438 237.914062 44.960938 275.6875 30.015625 C 313.457031 15.078125 351.929688 -5.632812 391.109375 -32.125 C 430.296875 -58.625 469.195312 -88.503906 507.8125 -121.765625 C 546.425781 -155.035156 583.769531 -189.144531 619.84375 -224.09375 C 677.351562 -280.476562 728.941406 -330.234375 774.609375 -373.359375 C 820.273438 -416.484375 864.53125 -454.675781 907.375 -487.9375 Z M 907.375 -487.9375 "/></g></g></g><g fill="#343430" fill-opacity="1"><g transform="translate(653.380845, 677.059273)"><g><path d="M 271.453125 -248.625 C 281.035156 -248.625 287.941406 -246.367188 292.171875 -241.859375 C 296.398438 -237.347656 298.515625 -232.273438 298.515625 -226.640625 C 298.515625 -216.484375 294.003906 -205.203125 284.984375 -192.796875 C 275.960938 -180.398438 265.390625 -168 253.265625 -155.59375 C 241.148438 -143.195312 230.019531 -132.488281 219.875 -123.46875 C 206.34375 -111.0625 193.9375 -99.359375 182.65625 -88.359375 C 171.382812 -77.367188 161.238281 -67.082031 152.21875 -57.5 C 141.507812 -46.226562 133.757812 -37.347656 128.96875 -30.859375 C 124.175781 -24.378906 121.78125 -18.882812 121.78125 -14.375 C 121.78125 -8.738281 124.878906 -5.921875 131.078125 -5.921875 C 137.835938 -5.921875 147.703125 -9.160156 160.671875 -15.640625 C 173.640625 -22.128906 187.171875 -30.445312 201.265625 -40.59375 C 215.921875 -51.300781 231.847656 -63.84375 249.046875 -78.21875 C 266.242188 -92.59375 280.476562 -104.289062 291.75 -113.3125 C 293.4375 -115.007812 295.40625 -116.421875 297.65625 -117.546875 C 299.914062 -118.671875 301.894531 -118.390625 303.59375 -116.703125 C 305.84375 -114.441406 305.835938 -112.039062 303.578125 -109.5 C 301.328125 -106.96875 299.078125 -104.859375 296.828125 -103.171875 C 283.859375 -91.890625 269.054688 -79.34375 252.421875 -65.53125 C 235.796875 -51.71875 219.585938 -39.175781 203.796875 -27.90625 C 188.578125 -17.195312 173.78125 -8.597656 159.40625 -2.109375 C 145.03125 4.367188 132.769531 7.609375 122.625 7.609375 C 102.320312 7.609375 92.171875 -2.535156 92.171875 -22.828125 C 92.171875 -36.359375 98.375 -51.863281 110.78125 -69.34375 C 121.488281 -84 131.914062 -96.539062 142.0625 -106.96875 C 152.21875 -117.40625 166.03125 -130.515625 183.5 -146.296875 C 189.707031 -152.492188 197.601562 -159.539062 207.1875 -167.4375 C 216.769531 -175.332031 226.351562 -183.507812 235.9375 -191.96875 C 245.519531 -200.425781 253.550781 -208.035156 260.03125 -214.796875 C 266.519531 -221.554688 269.765625 -226.910156 269.765625 -230.859375 C 269.765625 -234.242188 267.789062 -235.9375 263.84375 -235.9375 C 256.507812 -235.9375 244.382812 -231.707031 227.46875 -223.25 C 210.5625 -214.789062 191.535156 -203.796875 170.390625 -190.265625 C 149.253906 -176.742188 128.960938 -162.789062 109.515625 -148.40625 C 90.066406 -134.03125 74.140625 -120.925781 61.734375 -109.09375 C 47.640625 -96.125 35.375 -84 24.9375 -72.71875 C 14.507812 -61.445312 3.800781 -49.46875 -7.1875 -36.78125 C -18.175781 -24.101562 -31.003906 -8.175781 -45.671875 11 C -49.046875 11 -51.71875 9.023438 -53.6875 5.078125 C -55.664062 1.128906 -56.65625 -3.378906 -56.65625 -8.453125 C -56.65625 -14.660156 -51.441406 -26.21875 -41.015625 -43.125 C -30.585938 -60.039062 -16.351562 -79.914062 1.6875 -102.75 C 19.726562 -125.582031 39.742188 -148.554688 61.734375 -171.671875 C 83.160156 -194.785156 106.554688 -218.601562 131.921875 -243.125 C 157.296875 -267.644531 182.804688 -291.179688 208.453125 -313.734375 C 234.109375 -336.285156 258.351562 -356.582031 281.1875 -374.625 C 304.019531 -392.664062 323.890625 -407.039062 340.796875 -417.75 C 347.003906 -421.695312 354.757812 -425.925781 364.0625 -430.4375 C 373.363281 -434.945312 381.675781 -438.332031 389 -440.59375 C 397.457031 -443.40625 405.769531 -445.09375 413.9375 -445.65625 C 422.113281 -446.21875 431.5625 -446.5 442.28125 -446.5 C 444.53125 -446.5 444.53125 -445.9375 442.28125 -444.8125 C 429.875 -442 417.46875 -436.785156 405.0625 -429.171875 C 392.664062 -421.554688 382.519531 -414.648438 374.625 -408.453125 C 355.457031 -394.359375 333.046875 -376.738281 307.390625 -355.59375 C 281.742188 -334.457031 255.109375 -311.484375 227.484375 -286.671875 C 199.859375 -261.867188 173.078125 -236.78125 147.140625 -211.40625 C 121.210938 -186.039062 98.378906 -162.363281 78.640625 -140.375 C 77.515625 -139.25 77.09375 -138.40625 77.375 -137.84375 C 77.65625 -137.28125 78.078125 -137.28125 78.640625 -137.84375 C 89.359375 -146.863281 103.171875 -157.570312 120.078125 -169.96875 C 136.992188 -182.375 155.035156 -194.632812 174.203125 -206.75 C 193.367188 -218.875 211.550781 -228.882812 228.75 -236.78125 C 245.945312 -244.675781 260.179688 -248.625 271.453125 -248.625 Z M 271.453125 -248.625 "/></g></g></g><g fill="#343430" fill-opacity="1"><g transform="translate(935.827088, 677.059273)"><g><path d="M 79.484375 -142.921875 C 65.390625 -129.953125 51.578125 -115.851562 38.046875 -100.625 C 24.523438 -85.40625 13.253906 -70.75 4.234375 -56.65625 C -4.785156 -42.5625 -9.296875 -31.003906 -9.296875 -21.984375 C -9.296875 -10.710938 -2.816406 -5.078125 10.140625 -5.078125 C 18.597656 -5.078125 29.3125 -7.613281 42.28125 -12.6875 C 55.25 -17.757812 68.78125 -24.804688 82.875 -33.828125 C 103.164062 -46.796875 123.035156 -61.3125 142.484375 -77.375 C 161.941406 -93.445312 177.023438 -106.273438 187.734375 -115.859375 C 190.554688 -118.671875 193.375 -120.921875 196.1875 -122.609375 C 199.007812 -124.304688 201.265625 -124.3125 202.953125 -122.625 C 204.648438 -120.925781 204.789062 -118.945312 203.375 -116.6875 C 201.96875 -114.4375 200.421875 -112.46875 198.734375 -110.78125 C 184.640625 -97.8125 169.414062 -84.703125 153.0625 -71.453125 C 136.71875 -58.203125 119.242188 -45.097656 100.640625 -32.140625 C 86.535156 -22.554688 70.742188 -13.535156 53.265625 -5.078125 C 35.796875 3.378906 18.882812 7.609375 2.53125 7.609375 C -7.613281 7.609375 -17.335938 5.070312 -26.640625 0 C -35.941406 -5.070312 -40.59375 -15.785156 -40.59375 -32.140625 C -40.59375 -43.410156 -36.363281 -59.191406 -27.90625 -79.484375 C -19.445312 -99.785156 -1.6875 -122.898438 25.375 -148.828125 C 44.539062 -166.867188 65.398438 -183.5 87.953125 -198.71875 C 110.503906 -213.945312 132.347656 -226.351562 153.484375 -235.9375 C 174.628906 -245.519531 191.96875 -250.3125 205.5 -250.3125 C 213.945312 -250.3125 220.285156 -248.335938 224.515625 -244.390625 C 228.742188 -240.441406 230.859375 -235.367188 230.859375 -229.171875 C 230.859375 -220.148438 226.347656 -210.425781 217.328125 -200 C 208.304688 -189.570312 197.878906 -180.410156 186.046875 -172.515625 C 172.515625 -163.492188 157.289062 -155.738281 140.375 -149.25 C 123.46875 -142.769531 108.53125 -139.53125 95.5625 -139.53125 C 89.351562 -139.53125 83.992188 -140.660156 79.484375 -142.921875 Z M 85.40625 -148.828125 C 87.664062 -147.703125 89.921875 -147.140625 92.171875 -147.140625 C 100.628906 -147.140625 112.890625 -150.519531 128.953125 -157.28125 C 145.023438 -164.050781 160.953125 -173.921875 176.734375 -186.890625 C 188.578125 -196.472656 198.160156 -205.632812 205.484375 -214.375 C 212.816406 -223.113281 216.484375 -230.019531 216.484375 -235.09375 C 216.484375 -238.476562 214.507812 -240.171875 210.5625 -240.171875 C 204.925781 -240.171875 194.5 -235.234375 179.28125 -225.359375 C 164.0625 -215.492188 147.851562 -203.515625 130.65625 -189.421875 C 113.457031 -175.328125 98.375 -161.796875 85.40625 -148.828125 Z M 85.40625 -148.828125 "/></g></g></g><g fill="#343430" fill-opacity="1"><g transform="translate(1111.721745, 677.059273)"><g/></g></g><g fill="#343430" fill-opacity="1"><g transform="translate(1287.616402, 677.059273)"><g><path d="M 252.84375 -317.125 C 242.695312 -326.144531 235.507812 -336.429688 231.28125 -347.984375 C 227.050781 -359.546875 224.65625 -370.960938 224.09375 -382.234375 C 223.53125 -412.117188 231.707031 -438.332031 248.625 -460.875 C 265.539062 -483.425781 288.796875 -502.453125 318.390625 -517.953125 C 347.984375 -533.453125 382.085938 -545.003906 420.703125 -552.609375 C 459.328125 -560.222656 500.335938 -564.03125 543.734375 -564.03125 C 589.960938 -564.03125 633.9375 -561.632812 675.65625 -556.84375 C 717.382812 -552.050781 755.441406 -546.410156 789.828125 -539.921875 C 824.210938 -533.441406 853.664062 -527.101562 878.1875 -520.90625 C 902.71875 -514.71875 920.90625 -509.929688 932.75 -506.546875 C 938.945312 -504.859375 949.09375 -501.898438 963.1875 -497.671875 C 977.28125 -493.441406 988.554688 -489.351562 997.015625 -485.40625 C 1000.960938 -483.71875 1005.191406 -481.601562 1009.703125 -479.0625 C 1014.210938 -476.53125 1015.335938 -474.132812 1013.078125 -471.875 C 1011.953125 -470.75 1009.273438 -471.3125 1005.046875 -473.5625 C 1000.816406 -475.820312 996.445312 -476.953125 991.9375 -476.953125 C 976.15625 -476.953125 958.113281 -471.875 937.8125 -461.71875 C 917.519531 -451.570312 897.226562 -438.328125 876.9375 -421.984375 C 851 -402.253906 824.921875 -379.5625 798.703125 -353.90625 C 772.492188 -328.257812 749.238281 -304.160156 728.9375 -281.609375 C 735.707031 -271.453125 741.0625 -260.59375 745 -249.03125 C 748.945312 -237.476562 750.921875 -224.65625 750.921875 -210.5625 C 750.921875 -203.800781 750.5 -196.894531 749.65625 -189.84375 C 748.8125 -182.800781 746.976562 -175.332031 744.15625 -167.4375 C 760.507812 -185.476562 776.859375 -203.238281 793.203125 -220.71875 C 809.554688 -238.195312 825.625 -254.265625 841.40625 -268.921875 C 887.632812 -311.765625 934.144531 -350.800781 980.9375 -386.03125 C 1027.738281 -421.269531 1074.957031 -449.457031 1122.59375 -470.59375 C 1170.226562 -491.738281 1217.726562 -502.3125 1265.09375 -502.3125 C 1283.125 -502.3125 1301.160156 -499.492188 1319.203125 -493.859375 C 1337.242188 -488.222656 1349.648438 -480.332031 1356.421875 -470.1875 C 1358.671875 -467.363281 1359.9375 -464.398438 1360.21875 -461.296875 C 1360.5 -458.203125 1359.234375 -456.09375 1356.421875 -454.96875 C 1354.722656 -454.96875 1350.773438 -457.785156 1344.578125 -463.421875 C 1334.992188 -471.878906 1323.859375 -478.925781 1311.171875 -484.5625 C 1298.484375 -490.195312 1283.96875 -493.015625 1267.625 -493.015625 C 1232.101562 -493.015625 1195.457031 -484.695312 1157.6875 -468.0625 C 1119.914062 -451.4375 1082.566406 -429.59375 1045.640625 -402.53125 C 1008.710938 -375.46875 973.613281 -346.710938 940.34375 -316.265625 C 907.082031 -285.828125 877.207031 -256.515625 850.71875 -228.328125 C 811.25 -187.171875 778.265625 -149.820312 751.765625 -116.28125 C 725.273438 -82.738281 703.851562 -54.972656 687.5 -32.984375 C 676.789062 -18.328125 668.332031 -6.628906 662.125 2.109375 C 655.925781 10.847656 649.726562 15.5 643.53125 16.0625 C 635.632812 16.625 631.828125 12.535156 632.109375 3.796875 C 632.390625 -4.929688 634.785156 -14.085938 639.296875 -23.671875 C 645.503906 -36.640625 655.9375 -53.410156 670.59375 -73.984375 C 685.25 -94.566406 702.160156 -116.414062 721.328125 -139.53125 C 727.523438 -152.5 732.035156 -164.617188 734.859375 -175.890625 C 737.679688 -187.171875 739.09375 -197.882812 739.09375 -208.03125 C 739.09375 -231.144531 732.609375 -252.285156 719.640625 -271.453125 C 704.421875 -253.972656 688.632812 -235.789062 672.28125 -216.90625 C 655.925781 -198.019531 638.734375 -179.273438 620.703125 -160.671875 C 572.773438 -111.054688 526.6875 -70.882812 482.4375 -40.15625 C 438.1875 -9.4375 396.46875 13.953125 357.28125 30.015625 C 318.101562 46.085938 282.445312 57.082031 250.3125 63 C 218.175781 68.914062 189.988281 71.875 165.75 71.875 C 143.757812 71.875 121.910156 68.914062 100.203125 63 C 78.503906 57.082031 60.320312 45.523438 45.65625 28.328125 C 31 11.128906 23.671875 -13.816406 23.671875 -46.515625 C 23.671875 -75.828125 32.410156 -106.972656 49.890625 -139.953125 C 67.367188 -172.929688 93.160156 -204.925781 127.265625 -235.9375 C 161.378906 -266.945312 203.238281 -294.007812 252.84375 -317.125 Z M 970.796875 -484.5625 C 952.191406 -489.632812 922.3125 -496.113281 881.15625 -504 C 840 -511.882812 790.523438 -519.066406 732.734375 -525.546875 C 674.953125 -532.035156 611.953125 -535.28125 543.734375 -535.28125 C 503.722656 -535.28125 465.253906 -531.894531 428.328125 -525.125 C 391.398438 -518.363281 358.414062 -508.363281 329.375 -495.125 C 300.34375 -481.882812 277.507812 -465.816406 260.875 -446.921875 C 244.25 -428.035156 235.9375 -406.472656 235.9375 -382.234375 C 235.9375 -372.085938 238.191406 -361.65625 242.703125 -350.9375 C 247.210938 -340.226562 254.539062 -330.644531 264.6875 -322.1875 C 304.15625 -339.101562 344.320312 -351.363281 385.1875 -358.96875 C 426.0625 -366.582031 463.695312 -370.390625 498.09375 -370.390625 C 542.613281 -370.390625 583.054688 -365.175781 619.421875 -354.75 C 655.785156 -344.320312 685.523438 -327.832031 708.640625 -305.28125 C 730.066406 -325.007812 752.757812 -345.019531 776.71875 -365.3125 C 800.675781 -385.613281 824.210938 -404.222656 847.328125 -421.140625 C 870.441406 -438.046875 892.566406 -452.273438 913.703125 -463.828125 C 934.847656 -475.390625 953.878906 -482.300781 970.796875 -484.5625 Z M 699.34375 -296.828125 C 676.789062 -318.242188 649.164062 -333.742188 616.46875 -343.328125 C 583.769531 -352.921875 549.941406 -357.71875 514.984375 -357.71875 C 484.554688 -357.71875 451.582031 -353.207031 416.0625 -344.1875 C 380.539062 -335.164062 345.441406 -323.320312 310.765625 -308.65625 C 276.097656 -294 244.953125 -277.9375 217.328125 -260.46875 C 160.953125 -224.945312 116.835938 -189.285156 84.984375 -153.484375 C 53.128906 -117.679688 37.203125 -80.050781 37.203125 -40.59375 C 37.203125 -13.53125 43.546875 7.1875 56.234375 21.5625 C 68.921875 35.9375 84.847656 45.800781 104.015625 51.15625 C 123.179688 56.519531 142.066406 59.203125 160.671875 59.203125 C 191.117188 59.203125 225.085938 53.703125 262.578125 42.703125 C 300.066406 31.710938 341.503906 12.265625 386.890625 -15.640625 C 432.273438 -43.546875 481.738281 -82.585938 535.28125 -132.765625 C 562.34375 -158.703125 588.976562 -185.34375 615.1875 -212.6875 C 641.40625 -240.03125 669.457031 -268.078125 699.34375 -296.828125 Z M 699.34375 -296.828125 "/></g></g></g><g fill="#343430" fill-opacity="1"><g transform="translate(2108.740131, 677.059273)"><g><path d="M 324.734375 -241.859375 C 300.492188 -219.867188 277.097656 -197.878906 254.546875 -175.890625 C 231.992188 -153.910156 211.976562 -133.757812 194.5 -115.4375 C 177.019531 -97.113281 163.207031 -82.03125 153.0625 -70.1875 C 142.351562 -57.78125 133.753906 -46.925781 127.265625 -37.625 C 120.785156 -28.320312 117.546875 -20.851562 117.546875 -15.21875 C 117.546875 -10.144531 120.363281 -7.609375 126 -7.609375 C 131.632812 -7.609375 139.101562 -10.285156 148.40625 -15.640625 C 157.707031 -20.992188 167.429688 -27.191406 177.578125 -34.234375 C 187.734375 -41.285156 196.472656 -47.632812 203.796875 -53.28125 C 217.328125 -63.988281 231.28125 -75.679688 245.65625 -88.359375 C 260.039062 -101.046875 272.304688 -111.898438 282.453125 -120.921875 C 284.140625 -122.054688 286.109375 -123.1875 288.359375 -124.3125 C 290.617188 -125.4375 292.59375 -124.875 294.28125 -122.625 C 296.539062 -120.363281 295.132812 -116.976562 290.0625 -112.46875 C 277.65625 -100.632812 264.125 -88.515625 249.46875 -76.109375 C 234.8125 -63.703125 222.125 -53.269531 211.40625 -44.8125 C 202.957031 -38.050781 193.234375 -30.722656 182.234375 -22.828125 C 171.242188 -14.941406 160.25 -8.175781 149.25 -2.53125 C 138.257812 3.101562 128.535156 5.921875 120.078125 5.921875 C 100.347656 5.921875 90.484375 -3.660156 90.484375 -22.828125 C 90.484375 -29.035156 92.316406 -36.648438 95.984375 -45.671875 C 99.648438 -54.691406 105.992188 -64.554688 115.015625 -75.265625 C 90.765625 -53.273438 66.519531 -34.242188 42.28125 -18.171875 C 18.039062 -2.109375 -0.84375 5.921875 -14.375 5.921875 C -33.539062 5.921875 -43.125 -3.378906 -43.125 -21.984375 C -43.6875 -37.203125 -37.625 -55.945312 -24.9375 -78.21875 C -12.257812 -100.488281 3.660156 -121.207031 22.828125 -140.375 C 41.992188 -160.113281 63.835938 -178.296875 88.359375 -194.921875 C 112.890625 -211.554688 136.992188 -224.945312 160.671875 -235.09375 C 184.347656 -245.238281 204.082031 -250.3125 219.875 -250.3125 C 227.757812 -250.3125 234.238281 -249.039062 239.3125 -246.5 C 244.394531 -243.96875 246.9375 -239.035156 246.9375 -231.703125 C 246.9375 -227.191406 245.242188 -221.410156 241.859375 -214.359375 C 238.472656 -207.316406 231.988281 -199.003906 222.40625 -189.421875 C 221.84375 -188.859375 221.703125 -188.4375 221.984375 -188.15625 C 222.265625 -187.875 222.6875 -188.015625 223.25 -188.578125 C 236.21875 -201.546875 249.1875 -212.539062 262.15625 -221.5625 C 275.125 -230.582031 284.988281 -236.21875 291.75 -238.46875 C 296.257812 -240.164062 300.628906 -241.15625 304.859375 -241.4375 C 309.085938 -241.71875 313.457031 -241.859375 317.96875 -241.859375 Z M 235.09375 -228.328125 C 235.09375 -234.523438 231.707031 -237.625 224.9375 -237.625 C 213.101562 -237.625 192.953125 -227.617188 164.484375 -207.609375 C 136.015625 -187.597656 101.765625 -158.421875 61.734375 -120.078125 C 40.867188 -99.222656 22.6875 -78.925781 7.1875 -59.1875 C -8.3125 -39.457031 -16.0625 -24.800781 -16.0625 -15.21875 C -16.0625 -12.96875 -15.640625 -10.992188 -14.796875 -9.296875 C -13.953125 -7.609375 -11.554688 -6.765625 -7.609375 -6.765625 C -0.285156 -6.765625 11.550781 -11.835938 27.90625 -21.984375 C 44.257812 -32.128906 63.285156 -46.222656 84.984375 -64.265625 C 106.691406 -82.304688 128.539062 -102.601562 150.53125 -125.15625 C 160.675781 -135.300781 172.375 -147 185.625 -160.25 C 198.875 -173.5 210.429688 -186.460938 220.296875 -199.140625 C 230.160156 -211.828125 235.09375 -221.554688 235.09375 -228.328125 Z M 235.09375 -228.328125 "/></g></g></g><g fill="#343430" fill-opacity="1"><g transform="translate(2374.273448, 677.059273)"><g><path d="M 253.703125 -315.4375 C 253.703125 -309.226562 251.304688 -303.726562 246.515625 -298.9375 C 241.722656 -294.144531 236.222656 -291.75 230.015625 -291.75 C 223.816406 -291.75 218.179688 -294.144531 213.109375 -298.9375 C 208.035156 -303.726562 205.5 -309.226562 205.5 -315.4375 C 205.5 -321.632812 208.035156 -327.128906 213.109375 -331.921875 C 218.179688 -336.710938 223.816406 -339.109375 230.015625 -339.109375 C 236.222656 -339.109375 241.722656 -336.710938 246.515625 -331.921875 C 251.304688 -327.128906 253.703125 -321.632812 253.703125 -315.4375 Z M 195.34375 -245.234375 C 171.101562 -223.253906 147.425781 -201.128906 124.3125 -178.859375 C 101.195312 -156.585938 80.476562 -135.867188 62.15625 -116.703125 C 43.832031 -97.535156 29.597656 -82.03125 19.453125 -70.1875 C 9.304688 -57.78125 1.132812 -46.925781 -5.0625 -37.625 C -11.269531 -28.320312 -14.375 -20.570312 -14.375 -14.375 C -14.375 -8.738281 -11.273438 -5.921875 -5.078125 -5.921875 C 1.128906 -5.921875 8.742188 -8.175781 17.765625 -12.6875 C 26.785156 -17.195312 36.226562 -22.550781 46.09375 -28.75 C 55.957031 -34.945312 64.269531 -40.585938 71.03125 -45.671875 C 80.613281 -52.992188 91.039062 -61.304688 102.3125 -70.609375 C 113.59375 -79.910156 124.304688 -88.789062 134.453125 -97.25 C 144.609375 -105.707031 152.503906 -112.472656 158.140625 -117.546875 C 163.773438 -123.179688 168.003906 -124.304688 170.828125 -120.921875 C 173.078125 -118.671875 171.945312 -115.570312 167.4375 -111.625 C 160.675781 -105.425781 151.515625 -97.390625 139.953125 -87.515625 C 128.398438 -77.648438 116.984375 -68.066406 105.703125 -58.765625 C 94.429688 -49.460938 85.410156 -42.273438 78.640625 -37.203125 C 65.109375 -27.054688 49.742188 -17.050781 32.546875 -7.1875 C 15.359375 2.675781 -0.28125 7.609375 -14.375 7.609375 C -34.101562 7.609375 -43.96875 -1.410156 -43.96875 -19.453125 C -43.96875 -32.421875 -38.328125 -48.207031 -27.046875 -66.8125 C -15.773438 -85.414062 -0.554688 -104.863281 18.609375 -125.15625 C 29.878906 -136.425781 43.546875 -149.671875 59.609375 -164.890625 C 75.679688 -180.117188 91.75 -194.359375 107.8125 -207.609375 C 123.882812 -220.859375 137.554688 -230.582031 148.828125 -236.78125 C 155.035156 -240.164062 162.929688 -242.5625 172.515625 -243.96875 C 182.097656 -245.382812 189.707031 -245.804688 195.34375 -245.234375 Z M 195.34375 -245.234375 "/></g></g></g><g fill="#343430" fill-opacity="1"><g transform="translate(2518.033544, 677.059273)"><g><path d="M 137 -27.90625 C 122.90625 -18.320312 109.65625 -10.285156 97.25 -3.796875 C 84.84375 2.679688 73.847656 5.921875 64.265625 5.921875 C 44.535156 5.921875 34.671875 -4.226562 34.671875 -24.53125 C 34.671875 -42 42.421875 -60.878906 57.921875 -81.171875 C 73.429688 -101.472656 94.429688 -123.179688 120.921875 -146.296875 C 131.640625 -155.878906 142.773438 -165.882812 154.328125 -176.3125 C 165.890625 -186.75 175.753906 -196.050781 183.921875 -204.21875 C 192.097656 -212.394531 195.90625 -217.894531 195.34375 -220.71875 C 194.78125 -224.101562 193.085938 -226.359375 190.265625 -227.484375 C 187.453125 -228.609375 182.941406 -230.582031 176.734375 -233.40625 C 169.410156 -237.351562 164.335938 -241.015625 161.515625 -244.390625 C 152.492188 -234.242188 142.628906 -223.8125 131.921875 -213.09375 C 121.210938 -202.382812 110.21875 -191.394531 98.9375 -180.125 C 83.71875 -166.03125 67.085938 -150.664062 49.046875 -134.03125 C 31.003906 -117.40625 16.066406 -104.300781 4.234375 -94.71875 C 2.535156 -93.019531 0.5625 -91.890625 -1.6875 -91.328125 C -3.945312 -90.765625 -5.640625 -91.328125 -6.765625 -93.015625 C -7.890625 -94.710938 -7.890625 -96.546875 -6.765625 -98.515625 C -5.640625 -100.492188 -4.226562 -102.046875 -2.53125 -103.171875 C 11 -115.003906 26.21875 -128.53125 43.125 -143.75 C 60.039062 -158.976562 75.828125 -173.640625 90.484375 -187.734375 C 104.578125 -200.703125 116.976562 -212.679688 127.6875 -223.671875 C 138.40625 -234.671875 148.273438 -245.523438 157.296875 -256.234375 C 157.296875 -262.429688 160.394531 -269.757812 166.59375 -278.21875 C 172.789062 -286.675781 180.679688 -294.570312 190.265625 -301.90625 C 198.160156 -307.539062 205.488281 -311.90625 212.25 -315 C 219.019531 -318.101562 224.660156 -319.9375 229.171875 -320.5 C 230.859375 -321.0625 233.816406 -321.625 238.046875 -322.1875 C 242.273438 -322.757812 246.363281 -323.046875 250.3125 -323.046875 C 258.769531 -323.046875 263 -321.914062 263 -319.65625 C 263 -317.96875 259.472656 -314.585938 252.421875 -309.515625 C 245.378906 -304.441406 237.628906 -299.503906 229.171875 -294.703125 C 220.710938 -289.910156 214.507812 -286.390625 210.5625 -284.140625 C 201.539062 -278.503906 193.082031 -272.863281 185.1875 -267.21875 C 177.300781 -261.582031 173.359375 -256.507812 173.359375 -252 C 173.359375 -249.75 176.175781 -247.351562 181.8125 -244.8125 C 187.445312 -242.28125 191.675781 -240.453125 194.5 -239.328125 C 210.28125 -234.242188 218.171875 -226.347656 218.171875 -215.640625 C 218.171875 -204.367188 213.941406 -192.390625 205.484375 -179.703125 C 197.035156 -167.015625 186.890625 -154.609375 175.046875 -142.484375 C 163.210938 -130.367188 152.503906 -119.800781 142.921875 -110.78125 C 127.128906 -96.125 113.3125 -83.15625 101.46875 -71.875 C 89.632812 -60.601562 79.769531 -50.175781 71.875 -40.59375 C 62.851562 -29.882812 58.34375 -21.425781 58.34375 -15.21875 C 58.34375 -9.582031 61.726562 -6.765625 68.5 -6.765625 C 76.394531 -6.765625 87.25 -10.851562 101.0625 -19.03125 C 114.875 -27.207031 126.289062 -34.394531 135.3125 -40.59375 C 149.96875 -51.300781 165.75 -63.84375 182.65625 -78.21875 C 199.570312 -92.59375 213.664062 -104.289062 224.9375 -113.3125 C 226.632812 -115.007812 228.609375 -116.421875 230.859375 -117.546875 C 233.117188 -118.671875 235.09375 -118.390625 236.78125 -116.703125 C 239.039062 -114.441406 239.039062 -112.039062 236.78125 -109.5 C 234.53125 -106.96875 232.273438 -104.859375 230.015625 -103.171875 C 217.046875 -91.890625 202.242188 -79.34375 185.609375 -65.53125 C 168.984375 -51.71875 152.78125 -39.175781 137 -27.90625 Z M 137 -27.90625 "/></g></g></g><g fill="#343430" fill-opacity="1"><g transform="translate(2732.827935, 677.059273)"><g/></g></g><g fill="#343430" fill-opacity="1"><g transform="translate(2908.722667, 677.059273)"><g><path d="M 939.515625 -471.875 C 938.941406 -470.75 937.671875 -470.609375 935.703125 -471.453125 C 933.734375 -472.296875 931.617188 -473 929.359375 -473.5625 C 925.410156 -475.257812 920.898438 -476.109375 915.828125 -476.109375 C 902.859375 -476.109375 887.070312 -470.609375 868.46875 -459.609375 C 849.863281 -448.617188 829.988281 -434.242188 808.84375 -416.484375 C 787.707031 -398.722656 766.847656 -379.550781 746.265625 -358.96875 C 725.691406 -338.394531 706.523438 -318.664062 688.765625 -299.78125 C 671.015625 -280.894531 656.5 -264.96875 645.21875 -252 C 574.75 -170.820312 510.484375 -106.410156 452.421875 -58.765625 C 394.359375 -11.128906 339.957031 22.972656 289.21875 43.546875 C 238.476562 64.128906 188.019531 74.421875 137.84375 74.421875 C 116.976562 74.421875 96.398438 71.035156 76.109375 64.265625 C 55.816406 57.503906 38.90625 45.382812 25.375 27.90625 C 11.84375 10.425781 5.078125 -14.378906 5.078125 -46.515625 C 5.078125 -89.921875 19.03125 -133.328125 46.9375 -176.734375 C 74.84375 -220.148438 113.601562 -258.769531 163.21875 -292.59375 C 180.125 -303.875 197.316406 -314.023438 214.796875 -323.046875 C 232.273438 -332.066406 249.1875 -339.957031 265.53125 -346.71875 C 262.15625 -350.101562 259.054688 -355.457031 256.234375 -362.78125 C 253.410156 -370.113281 252 -378.289062 252 -387.3125 C 252 -421.132812 264.679688 -451.429688 290.046875 -478.203125 C 315.421875 -504.984375 350.09375 -526.125 394.0625 -541.625 C 438.039062 -557.125 487.929688 -564.875 543.734375 -564.875 C 592.222656 -564.875 637.046875 -561.492188 678.203125 -554.734375 C 719.359375 -547.972656 755.15625 -540.503906 785.59375 -532.328125 C 816.039062 -524.148438 839.15625 -517.523438 854.9375 -512.453125 C 862.269531 -510.203125 871.148438 -507.242188 881.578125 -503.578125 C 892.003906 -499.921875 902.148438 -495.976562 912.015625 -491.75 C 921.890625 -487.519531 929.363281 -483.710938 934.4375 -480.328125 C 938.945312 -478.078125 940.640625 -475.257812 939.515625 -471.875 Z M 903.140625 -484.5625 C 865.929688 -495.832031 829.566406 -505.269531 794.046875 -512.875 C 758.535156 -520.488281 720.90625 -526.40625 681.15625 -530.625 C 641.414062 -534.851562 595.894531 -536.96875 544.59375 -536.96875 C 490.476562 -536.96875 442.132812 -530.207031 399.5625 -516.6875 C 357 -503.164062 323.597656 -485.128906 299.359375 -462.578125 C 275.117188 -440.023438 263 -414.65625 263 -386.46875 C 263 -370.113281 266.664062 -357.707031 274 -349.25 C 301.625 -359.96875 328.117188 -367.296875 353.484375 -371.234375 C 378.847656 -375.179688 401.398438 -377.15625 421.140625 -377.15625 C 440.304688 -377.15625 457.921875 -375.039062 473.984375 -370.8125 C 490.054688 -366.59375 503.160156 -359.832031 513.296875 -350.53125 C 523.441406 -341.226562 528.515625 -328.960938 528.515625 -313.734375 C 528.515625 -301.335938 525.695312 -290.769531 520.0625 -282.03125 C 514.4375 -273.289062 510.210938 -270.046875 507.390625 -272.296875 C 506.265625 -273.429688 507.8125 -277.378906 512.03125 -284.140625 C 516.257812 -290.898438 518.375 -300.203125 518.375 -312.046875 C 518.375 -326.140625 513.722656 -336.847656 504.421875 -344.171875 C 495.128906 -351.503906 483.148438 -356.722656 468.484375 -359.828125 C 453.828125 -362.929688 438.046875 -364.484375 421.140625 -364.484375 C 400.835938 -364.484375 377.4375 -360.675781 350.9375 -353.0625 C 324.445312 -345.445312 297.25 -335.015625 269.34375 -321.765625 C 241.4375 -308.523438 214.796875 -293.164062 189.421875 -275.6875 C 157.847656 -254.257812 129.09375 -231.140625 103.15625 -206.328125 C 77.226562 -181.523438 56.65625 -155.453125 41.4375 -128.109375 C 26.21875 -100.773438 18.609375 -72.164062 18.609375 -42.28125 C 18.609375 -16.914062 24.101562 3.234375 35.09375 18.171875 C 46.082031 33.117188 60.457031 43.832031 78.21875 50.3125 C 95.976562 56.800781 114.441406 60.046875 133.609375 60.046875 C 175.328125 60.046875 220.710938 46.65625 269.765625 19.875 C 318.816406 -6.90625 370.679688 -43.269531 425.359375 -89.21875 C 480.046875 -135.164062 535.859375 -186.890625 592.796875 -244.390625 C 659.878906 -312.046875 718.929688 -367.296875 769.953125 -410.140625 C 820.972656 -452.984375 865.367188 -477.789062 903.140625 -484.5625 Z M 903.140625 -484.5625 "/></g></g></g><g fill="#343430" fill-opacity="1"><g transform="translate(3506.595328, 677.059273)"><g><path d="M 303.59375 -116.703125 C 305.84375 -114.441406 305.835938 -112.039062 303.578125 -109.5 C 301.328125 -106.96875 299.078125 -104.859375 296.828125 -103.171875 C 283.859375 -91.890625 269.054688 -79.34375 252.421875 -65.53125 C 235.796875 -51.71875 219.585938 -39.175781 203.796875 -27.90625 C 188.015625 -17.195312 173.078125 -8.597656 158.984375 -2.109375 C 144.890625 4.367188 132.769531 7.609375 122.625 7.609375 C 102.320312 7.609375 92.171875 -2.535156 92.171875 -22.828125 C 92.171875 -36.359375 98.375 -51.863281 110.78125 -69.34375 C 121.488281 -84 131.914062 -96.539062 142.0625 -106.96875 C 152.21875 -117.40625 166.03125 -130.515625 183.5 -146.296875 C 192.519531 -154.191406 203.796875 -163.914062 217.328125 -175.46875 C 230.859375 -187.03125 242.976562 -198.023438 253.6875 -208.453125 C 264.40625 -218.878906 269.765625 -226.347656 269.765625 -230.859375 C 269.765625 -234.242188 267.789062 -235.9375 263.84375 -235.9375 C 256.507812 -235.9375 244.664062 -231.847656 228.3125 -223.671875 C 211.96875 -215.492188 193.503906 -204.921875 172.921875 -191.953125 C 152.347656 -178.992188 132.054688 -165.1875 112.046875 -150.53125 C 92.035156 -135.875 75.265625 -122.0625 61.734375 -109.09375 C 47.640625 -96.125 35.375 -84 24.9375 -72.71875 C 14.507812 -61.445312 3.800781 -49.46875 -7.1875 -36.78125 C -18.175781 -24.101562 -31.003906 -8.175781 -45.671875 11 C -49.046875 11 -51.71875 9.023438 -53.6875 5.078125 C -55.664062 1.128906 -56.65625 -3.378906 -56.65625 -8.453125 C -56.65625 -14.660156 -51.863281 -25.65625 -42.28125 -41.4375 C -32.695312 -57.21875 -19.445312 -75.820312 -2.53125 -97.25 C 14.375 -118.675781 33.820312 -140.664062 55.8125 -163.21875 C 69.34375 -177.875 83.15625 -191.257812 97.25 -203.375 C 111.34375 -215.5 123.460938 -224.941406 133.609375 -231.703125 C 140.941406 -236.210938 149.960938 -239.59375 160.671875 -241.84375 C 171.378906 -244.101562 182.09375 -245.234375 192.8125 -245.234375 C 178.15625 -235.085938 160.113281 -220.429688 138.6875 -201.265625 C 117.257812 -182.097656 97.242188 -161.800781 78.640625 -140.375 C 77.515625 -139.25 77.09375 -138.40625 77.375 -137.84375 C 77.65625 -137.28125 78.078125 -137.28125 78.640625 -137.84375 C 89.359375 -146.863281 103.171875 -157.570312 120.078125 -169.96875 C 136.992188 -182.375 155.035156 -194.632812 174.203125 -206.75 C 193.367188 -218.875 211.550781 -228.882812 228.75 -236.78125 C 245.945312 -244.675781 260.179688 -248.625 271.453125 -248.625 C 281.035156 -248.625 287.941406 -246.226562 292.171875 -241.4375 C 296.398438 -236.644531 298.515625 -231.144531 298.515625 -224.9375 C 298.515625 -215.351562 294.003906 -204.359375 284.984375 -191.953125 C 275.960938 -179.554688 265.390625 -167.296875 253.265625 -155.171875 C 241.148438 -143.054688 230.019531 -132.488281 219.875 -123.46875 C 206.34375 -111.0625 193.9375 -99.359375 182.65625 -88.359375 C 171.382812 -77.367188 161.238281 -67.082031 152.21875 -57.5 C 141.507812 -46.226562 133.757812 -37.347656 128.96875 -30.859375 C 124.175781 -24.378906 121.78125 -18.882812 121.78125 -14.375 C 121.78125 -8.738281 124.878906 -5.921875 131.078125 -5.921875 C 137.835938 -5.921875 147.84375 -9.300781 161.09375 -16.0625 C 174.34375 -22.832031 188.015625 -31.007812 202.109375 -40.59375 C 216.765625 -51.300781 232.550781 -63.84375 249.46875 -78.21875 C 266.382812 -92.59375 280.476562 -104.289062 291.75 -113.3125 C 293.4375 -115.007812 295.40625 -116.421875 297.65625 -117.546875 C 299.914062 -118.671875 301.894531 -118.390625 303.59375 -116.703125 Z M 303.59375 -116.703125 "/></g></g></g><g fill="#343430" fill-opacity="1"><g transform="translate(3789.041715, 677.059273)"><g><path d="M 241.859375 -315.4375 C 248.617188 -315.4375 252 -312.613281 252 -306.96875 C 252 -303.019531 248.613281 -296.957031 241.84375 -288.78125 C 235.082031 -280.613281 224.09375 -270.890625 208.875 -259.609375 C 198.726562 -252.285156 188.15625 -245.097656 177.15625 -238.046875 C 166.164062 -231.003906 157.570312 -224.378906 151.375 -218.171875 C 146.863281 -212.535156 143.335938 -205.628906 140.796875 -197.453125 C 138.265625 -189.285156 136.4375 -181.816406 135.3125 -175.046875 C 133.050781 -162.078125 130.085938 -146.570312 126.421875 -128.53125 C 122.753906 -110.5 115.566406 -92.035156 104.859375 -73.140625 C 94.148438 -54.253906 76.109375 -36.359375 50.734375 -19.453125 C 65.960938 -26.773438 81.046875 -35.085938 95.984375 -44.390625 C 110.921875 -53.691406 125.15625 -63.132812 138.6875 -72.71875 C 149.957031 -80.613281 159.960938 -88.082031 168.703125 -95.125 C 177.441406 -102.175781 186.882812 -110.210938 197.03125 -119.234375 C 201.539062 -123.742188 204.925781 -124.304688 207.1875 -120.921875 C 210 -118.671875 209.4375 -115.570312 205.5 -111.625 C 195.914062 -102.601562 185.625 -93.863281 174.625 -85.40625 C 163.632812 -76.945312 153.066406 -69.054688 142.921875 -61.734375 C 127.128906 -50.453125 111.625 -40.441406 96.40625 -31.703125 C 81.1875 -22.972656 67.9375 -16.351562 56.65625 -11.84375 C 40.875 -5.070312 25.648438 -0.28125 10.984375 2.53125 C -3.671875 5.351562 -16.914062 6.765625 -28.75 6.765625 C -41.71875 6.765625 -52.144531 4.367188 -60.03125 -0.421875 C -67.925781 -5.210938 -71.875 -13.25 -71.875 -24.53125 C -71.875 -38.050781 -62.570312 -54.960938 -43.96875 -75.265625 C -38.894531 -80.898438 -32.972656 -86.535156 -26.203125 -92.171875 C -19.441406 -97.816406 -13.242188 -102.890625 -7.609375 -107.390625 C 0.847656 -114.160156 8.738281 -119.519531 16.0625 -123.46875 C 23.394531 -127.414062 29.878906 -129.390625 35.515625 -129.390625 C 52.429688 -144.046875 70.753906 -160.109375 90.484375 -177.578125 C 110.210938 -195.054688 125.4375 -210 136.15625 -222.40625 C 146.300781 -234.8125 155.882812 -245.945312 164.90625 -255.8125 C 173.925781 -265.675781 182.945312 -274.554688 191.96875 -282.453125 C 203.238281 -292.597656 212.960938 -300.628906 221.140625 -306.546875 C 229.316406 -312.472656 236.222656 -315.4375 241.859375 -315.4375 Z M 131.078125 -203.796875 C 119.796875 -191.398438 106.125 -178.007812 90.0625 -163.625 C 74 -149.25 57.507812 -135.015625 40.59375 -120.921875 C 39.46875 -116.984375 36.082031 -112.050781 30.4375 -106.125 C 24.800781 -100.207031 16.628906 -93.867188 5.921875 -87.109375 C 0.285156 -83.160156 -6.757812 -78.648438 -15.21875 -73.578125 C -23.675781 -68.503906 -31.003906 -63.710938 -37.203125 -59.203125 C -43.972656 -54.117188 -49.753906 -48.617188 -54.546875 -42.703125 C -59.335938 -36.785156 -61.734375 -30.726562 -61.734375 -24.53125 C -61.734375 -17.195312 -59.195312 -12.539062 -54.125 -10.5625 C -49.050781 -8.59375 -43.976562 -7.609375 -38.90625 -7.609375 C -25.9375 -7.609375 -10.992188 -12.679688 5.921875 -22.828125 C 22.835938 -32.972656 39.46875 -47.351562 55.8125 -65.96875 C 65.957031 -76.675781 76.101562 -90.34375 86.25 -106.96875 C 96.40625 -123.601562 105.566406 -140.660156 113.734375 -158.140625 C 121.910156 -175.617188 127.691406 -190.835938 131.078125 -203.796875 Z M 131.078125 -203.796875 "/></g></g></g><g fill="#343430" fill-opacity="1"><g transform="translate(3970.01025, 677.059273)"><g><path d="M 253.703125 -315.4375 C 253.703125 -309.226562 251.304688 -303.726562 246.515625 -298.9375 C 241.722656 -294.144531 236.222656 -291.75 230.015625 -291.75 C 223.816406 -291.75 218.179688 -294.144531 213.109375 -298.9375 C 208.035156 -303.726562 205.5 -309.226562 205.5 -315.4375 C 205.5 -321.632812 208.035156 -327.128906 213.109375 -331.921875 C 218.179688 -336.710938 223.816406 -339.109375 230.015625 -339.109375 C 236.222656 -339.109375 241.722656 -336.710938 246.515625 -331.921875 C 251.304688 -327.128906 253.703125 -321.632812 253.703125 -315.4375 Z M 195.34375 -245.234375 C 171.101562 -223.253906 147.425781 -201.128906 124.3125 -178.859375 C 101.195312 -156.585938 80.476562 -135.867188 62.15625 -116.703125 C 43.832031 -97.535156 29.597656 -82.03125 19.453125 -70.1875 C 9.304688 -57.78125 1.132812 -46.925781 -5.0625 -37.625 C -11.269531 -28.320312 -14.375 -20.570312 -14.375 -14.375 C -14.375 -8.738281 -11.273438 -5.921875 -5.078125 -5.921875 C 1.128906 -5.921875 8.742188 -8.175781 17.765625 -12.6875 C 26.785156 -17.195312 36.226562 -22.550781 46.09375 -28.75 C 55.957031 -34.945312 64.269531 -40.585938 71.03125 -45.671875 C 80.613281 -52.992188 91.039062 -61.304688 102.3125 -70.609375 C 113.59375 -79.910156 124.304688 -88.789062 134.453125 -97.25 C 144.609375 -105.707031 152.503906 -112.472656 158.140625 -117.546875 C 163.773438 -123.179688 168.003906 -124.304688 170.828125 -120.921875 C 173.078125 -118.671875 171.945312 -115.570312 167.4375 -111.625 C 160.675781 -105.425781 151.515625 -97.390625 139.953125 -87.515625 C 128.398438 -77.648438 116.984375 -68.066406 105.703125 -58.765625 C 94.429688 -49.460938 85.410156 -42.273438 78.640625 -37.203125 C 65.109375 -27.054688 49.742188 -17.050781 32.546875 -7.1875 C 15.359375 2.675781 -0.28125 7.609375 -14.375 7.609375 C -34.101562 7.609375 -43.96875 -1.410156 -43.96875 -19.453125 C -43.96875 -32.421875 -38.328125 -48.207031 -27.046875 -66.8125 C -15.773438 -85.414062 -0.554688 -104.863281 18.609375 -125.15625 C 29.878906 -136.425781 43.546875 -149.671875 59.609375 -164.890625 C 75.679688 -180.117188 91.75 -194.359375 107.8125 -207.609375 C 123.882812 -220.859375 137.554688 -230.582031 148.828125 -236.78125 C 155.035156 -240.164062 162.929688 -242.5625 172.515625 -243.96875 C 182.097656 -245.382812 189.707031 -245.804688 195.34375 -245.234375 Z M 195.34375 -245.234375 "/></g></g></g><g fill="#343430" fill-opacity="1"><g transform="translate(4113.770491, 677.059273)"><g><path d="M 211.40625 -44.8125 C 202.957031 -38.050781 193.09375 -30.722656 181.8125 -22.828125 C 170.539062 -14.941406 159.40625 -8.175781 148.40625 -2.53125 C 137.414062 3.101562 127.691406 5.921875 119.234375 5.921875 C 100.066406 5.921875 90.484375 -3.378906 90.484375 -21.984375 C 90.484375 -28.191406 92.316406 -35.945312 95.984375 -45.25 C 99.648438 -54.550781 105.992188 -64.554688 115.015625 -75.265625 C 89.640625 -52.710938 65.113281 -33.539062 41.4375 -17.75 C 17.757812 -1.96875 -0.84375 5.921875 -14.375 5.921875 C -33.539062 5.921875 -43.125 -3.378906 -43.125 -21.984375 C -43.6875 -37.203125 -37.625 -55.945312 -24.9375 -78.21875 C -12.257812 -100.488281 3.660156 -121.207031 22.828125 -140.375 C 41.992188 -160.113281 63.835938 -178.296875 88.359375 -194.921875 C 112.890625 -211.554688 136.851562 -224.804688 160.25 -234.671875 C 183.644531 -244.535156 202.953125 -249.46875 218.171875 -249.46875 C 224.941406 -249.46875 230.863281 -248.054688 235.9375 -245.234375 C 241.007812 -242.421875 243.546875 -237.910156 243.546875 -231.703125 C 243.546875 -225.503906 240.445312 -217.894531 234.25 -208.875 C 233.6875 -207.75 233.546875 -207.046875 233.828125 -206.765625 C 234.109375 -206.484375 234.53125 -206.90625 235.09375 -208.03125 C 245.800781 -219.300781 260.597656 -234.378906 279.484375 -253.265625 C 298.367188 -272.160156 316.550781 -289.5 334.03125 -305.28125 C 392.101562 -358.84375 437.769531 -396.050781 471.03125 -416.90625 C 477.789062 -421.414062 485.257812 -425.785156 493.4375 -430.015625 C 501.613281 -434.242188 509.925781 -437.484375 518.375 -439.734375 C 526.257812 -442.554688 534.570312 -444.390625 543.3125 -445.234375 C 552.050781 -446.078125 561.78125 -446.5 572.5 -446.5 C 574.75 -446.5 574.75 -445.9375 572.5 -444.8125 C 561.78125 -442.5625 549.65625 -437.207031 536.125 -428.75 C 522.59375 -420.289062 512.453125 -413.523438 505.703125 -408.453125 C 476.390625 -385.898438 445.523438 -360.390625 413.109375 -331.921875 C 380.691406 -303.453125 349.539062 -274.554688 319.65625 -245.234375 C 297.664062 -223.253906 275.675781 -200.988281 253.6875 -178.4375 C 231.707031 -155.882812 211.835938 -135.023438 194.078125 -115.859375 C 176.316406 -96.691406 162.363281 -81.1875 152.21875 -69.34375 C 142.632812 -56.9375 134.457031 -46.082031 127.6875 -36.78125 C 120.925781 -27.476562 117.546875 -20.289062 117.546875 -15.21875 C 117.546875 -10.144531 120.082031 -7.609375 125.15625 -7.609375 C 130.789062 -7.609375 138.679688 -10.425781 148.828125 -16.0625 C 158.984375 -21.707031 169.273438 -28.191406 179.703125 -35.515625 C 190.128906 -42.847656 198.160156 -48.769531 203.796875 -53.28125 C 217.328125 -63.988281 231.28125 -75.679688 245.65625 -88.359375 C 260.039062 -101.046875 272.304688 -111.898438 282.453125 -120.921875 C 284.140625 -122.054688 286.109375 -123.1875 288.359375 -124.3125 C 290.617188 -125.4375 292.59375 -124.875 294.28125 -122.625 C 296.539062 -120.363281 295.132812 -116.976562 290.0625 -112.46875 C 277.65625 -100.632812 264.125 -88.515625 249.46875 -76.109375 C 234.8125 -63.703125 222.125 -53.269531 211.40625 -44.8125 Z M 231.703125 -229.171875 C 231.703125 -235.367188 228.039062 -238.46875 220.71875 -238.46875 C 208.875 -238.46875 189.421875 -228.175781 162.359375 -207.59375 C 135.304688 -187.019531 101.765625 -157.847656 61.734375 -120.078125 C 40.867188 -99.222656 22.6875 -79.066406 7.1875 -59.609375 C -8.3125 -40.160156 -16.0625 -25.363281 -16.0625 -15.21875 C -16.0625 -9.582031 -13.242188 -6.765625 -7.609375 -6.765625 C -0.285156 -6.765625 11.550781 -11.835938 27.90625 -21.984375 C 44.257812 -32.128906 63.285156 -46.222656 84.984375 -64.265625 C 106.691406 -82.304688 128.539062 -102.601562 150.53125 -125.15625 C 160.675781 -135.300781 172.085938 -147.140625 184.765625 -160.671875 C 197.453125 -174.203125 208.445312 -187.3125 217.75 -200 C 227.050781 -212.6875 231.703125 -222.410156 231.703125 -229.171875 Z M 231.703125 -229.171875 "/></g></g></g><g fill="#343430" fill-opacity="1"><g transform="translate(4379.303808, 677.059273)"><g><path d="M 79.484375 -142.921875 C 65.390625 -129.953125 51.578125 -115.851562 38.046875 -100.625 C 24.523438 -85.40625 13.253906 -70.75 4.234375 -56.65625 C -4.785156 -42.5625 -9.296875 -31.003906 -9.296875 -21.984375 C -9.296875 -10.710938 -2.816406 -5.078125 10.140625 -5.078125 C 18.597656 -5.078125 29.3125 -7.613281 42.28125 -12.6875 C 55.25 -17.757812 68.78125 -24.804688 82.875 -33.828125 C 103.164062 -46.796875 123.035156 -61.3125 142.484375 -77.375 C 161.941406 -93.445312 177.023438 -106.273438 187.734375 -115.859375 C 190.554688 -118.671875 193.375 -120.921875 196.1875 -122.609375 C 199.007812 -124.304688 201.265625 -124.3125 202.953125 -122.625 C 204.648438 -120.925781 204.789062 -118.945312 203.375 -116.6875 C 201.96875 -114.4375 200.421875 -112.46875 198.734375 -110.78125 C 184.640625 -97.8125 169.414062 -84.703125 153.0625 -71.453125 C 136.71875 -58.203125 119.242188 -45.097656 100.640625 -32.140625 C 86.535156 -22.554688 70.742188 -13.535156 53.265625 -5.078125 C 35.796875 3.378906 18.882812 7.609375 2.53125 7.609375 C -7.613281 7.609375 -17.335938 5.070312 -26.640625 0 C -35.941406 -5.070312 -40.59375 -15.785156 -40.59375 -32.140625 C -40.59375 -43.410156 -36.363281 -59.191406 -27.90625 -79.484375 C -19.445312 -99.785156 -1.6875 -122.898438 25.375 -148.828125 C 44.539062 -166.867188 65.398438 -183.5 87.953125 -198.71875 C 110.503906 -213.945312 132.347656 -226.351562 153.484375 -235.9375 C 174.628906 -245.519531 191.96875 -250.3125 205.5 -250.3125 C 213.945312 -250.3125 220.285156 -248.335938 224.515625 -244.390625 C 228.742188 -240.441406 230.859375 -235.367188 230.859375 -229.171875 C 230.859375 -220.148438 226.347656 -210.425781 217.328125 -200 C 208.304688 -189.570312 197.878906 -180.410156 186.046875 -172.515625 C 172.515625 -163.492188 157.289062 -155.738281 140.375 -149.25 C 123.46875 -142.769531 108.53125 -139.53125 95.5625 -139.53125 C 89.351562 -139.53125 83.992188 -140.660156 79.484375 -142.921875 Z M 85.40625 -148.828125 C 87.664062 -147.703125 89.921875 -147.140625 92.171875 -147.140625 C 100.628906 -147.140625 112.890625 -150.519531 128.953125 -157.28125 C 145.023438 -164.050781 160.953125 -173.921875 176.734375 -186.890625 C 188.578125 -196.472656 198.160156 -205.632812 205.484375 -214.375 C 212.816406 -223.113281 216.484375 -230.019531 216.484375 -235.09375 C 216.484375 -238.476562 214.507812 -240.171875 210.5625 -240.171875 C 204.925781 -240.171875 194.5 -235.234375 179.28125 -225.359375 C 164.0625 -215.492188 147.851562 -203.515625 130.65625 -189.421875 C 113.457031 -175.328125 98.375 -161.796875 85.40625 -148.828125 Z M 85.40625 -148.828125 "/></g></g></g><g fill="#343430" fill-opacity="1"><g transform="translate(4555.198255, 677.059273)"><g><path d="M 137 -27.90625 C 122.90625 -18.320312 109.65625 -10.285156 97.25 -3.796875 C 84.84375 2.679688 73.847656 5.921875 64.265625 5.921875 C 44.535156 5.921875 34.671875 -4.226562 34.671875 -24.53125 C 34.671875 -42 42.421875 -60.878906 57.921875 -81.171875 C 73.429688 -101.472656 94.429688 -123.179688 120.921875 -146.296875 C 131.640625 -155.878906 142.773438 -165.882812 154.328125 -176.3125 C 165.890625 -186.75 175.753906 -196.050781 183.921875 -204.21875 C 192.097656 -212.394531 195.90625 -217.894531 195.34375 -220.71875 C 194.78125 -224.101562 193.085938 -226.359375 190.265625 -227.484375 C 187.453125 -228.609375 182.941406 -230.582031 176.734375 -233.40625 C 169.410156 -237.351562 164.335938 -241.015625 161.515625 -244.390625 C 152.492188 -234.242188 142.628906 -223.8125 131.921875 -213.09375 C 121.210938 -202.382812 110.21875 -191.394531 98.9375 -180.125 C 83.71875 -166.03125 67.085938 -150.664062 49.046875 -134.03125 C 31.003906 -117.40625 16.066406 -104.300781 4.234375 -94.71875 C 2.535156 -93.019531 0.5625 -91.890625 -1.6875 -91.328125 C -3.945312 -90.765625 -5.640625 -91.328125 -6.765625 -93.015625 C -7.890625 -94.710938 -7.890625 -96.546875 -6.765625 -98.515625 C -5.640625 -100.492188 -4.226562 -102.046875 -2.53125 -103.171875 C 11 -115.003906 26.21875 -128.53125 43.125 -143.75 C 60.039062 -158.976562 75.828125 -173.640625 90.484375 -187.734375 C 104.578125 -200.703125 116.976562 -212.679688 127.6875 -223.671875 C 138.40625 -234.671875 148.273438 -245.523438 157.296875 -256.234375 C 157.296875 -262.429688 160.394531 -269.757812 166.59375 -278.21875 C 172.789062 -286.675781 180.679688 -294.570312 190.265625 -301.90625 C 198.160156 -307.539062 205.488281 -311.90625 212.25 -315 C 219.019531 -318.101562 224.660156 -319.9375 229.171875 -320.5 C 230.859375 -321.0625 233.816406 -321.625 238.046875 -322.1875 C 242.273438 -322.757812 246.363281 -323.046875 250.3125 -323.046875 C 258.769531 -323.046875 263 -321.914062 263 -319.65625 C 263 -317.96875 259.472656 -314.585938 252.421875 -309.515625 C 245.378906 -304.441406 237.628906 -299.503906 229.171875 -294.703125 C 220.710938 -289.910156 214.507812 -286.390625 210.5625 -284.140625 C 201.539062 -278.503906 193.082031 -272.863281 185.1875 -267.21875 C 177.300781 -261.582031 173.359375 -256.507812 173.359375 -252 C 173.359375 -249.75 176.175781 -247.351562 181.8125 -244.8125 C 187.445312 -242.28125 191.675781 -240.453125 194.5 -239.328125 C 210.28125 -234.242188 218.171875 -226.347656 218.171875 -215.640625 C 218.171875 -204.367188 213.941406 -192.390625 205.484375 -179.703125 C 197.035156 -167.015625 186.890625 -154.609375 175.046875 -142.484375 C 163.210938 -130.367188 152.503906 -119.800781 142.921875 -110.78125 C 127.128906 -96.125 113.3125 -83.15625 101.46875 -71.875 C 89.632812 -60.601562 79.769531 -50.175781 71.875 -40.59375 C 62.851562 -29.882812 58.34375 -21.425781 58.34375 -15.21875 C 58.34375 -9.582031 61.726562 -6.765625 68.5 -6.765625 C 76.394531 -6.765625 87.25 -10.851562 101.0625 -19.03125 C 114.875 -27.207031 126.289062 -34.394531 135.3125 -40.59375 C 149.96875 -51.300781 165.75 -63.84375 182.65625 -78.21875 C 199.570312 -92.59375 213.664062 -104.289062 224.9375 -113.3125 C 226.632812 -115.007812 228.609375 -116.421875 230.859375 -117.546875 C 233.117188 -118.671875 235.09375 -118.390625 236.78125 -116.703125 C 239.039062 -114.441406 239.039062 -112.039062 236.78125 -109.5 C 234.53125 -106.96875 232.273438 -104.859375 230.015625 -103.171875 C 217.046875 -91.890625 202.242188 -79.34375 185.609375 -65.53125 C 168.984375 -51.71875 152.78125 -39.175781 137 -27.90625 Z M 137 -27.90625 "/></g></g></g></g></g></svg>